# xmcd
#
# Track frame offsets:
#	150
#	25341
#	44029
#	59734
#	82012
#	104240
#	130654
#	151043
#	175144
#	192627
#	213177
#
# Disc length: 3114 seconds
#
# Revision: 1
# Processed by: cddbd v1.5.1PL0 Copyright (c) Steve Scherf et al.
# Submitted via: audiograbber 1.83.01
#
DISCID=a10c280b
DTITLE=Uwe Herr and The Muddy Boots - 13 years
DYEAR=2002
DGENRE=Blues
TTITLE0=Where's the next one ccome from?
TTITLE1=All the same
TTITLE2=Telephone song
TTITLE3=Harlem nocturne
TTITLE4=Tobacco road
TTITLE5=Let me know
TTITLE6=Cango square
TTITLE7=Same old blues
TTITLE8=Losing kind
TTITLE9=My way down
TTITLE10=Born with a boken heart
EXTD=
EXTT0=
EXTT1=
EXTT2=
EXTT3=
EXTT4=
EXTT5=
EXTT6=
EXTT7=
EXTT8=
EXTT9=
EXTT10=
PLAYORDER=
